<svg width="28" height="28" viewBox="0 0 28 28" fill="none" xmlns="http://www.w3.org/2000/svg">
<path d="M16.1 16.3648V24.5002H5.60001C5.59968 23.218 5.89287 21.9528 6.45712 20.8015C7.02137 19.6501 7.84169 18.6432 8.85523 17.8579C9.86878 17.0726 11.0486 16.5298 12.3044 16.271C13.5602 16.0122 14.8586 16.0443 16.1 16.3648ZM14 15.0502C10.5193 15.0502 7.70001 12.2309 7.70001 8.7502C7.70001 5.26945 10.5193 2.4502 14 2.4502C17.4808 2.4502 20.3 5.26945 20.3 8.7502C20.3 12.2309 17.4808 15.0502 14 15.0502ZM20.3 19.2502V16.1002H22.4V19.2502H25.55V21.3502H22.4V24.5002H20.3V21.3502H17.15V19.2502H20.3Z" fill="#525866"/>
</svg>
